<svg width="64" height="64" viewBox="0 0 64 64" xmlns="http://www.w3.org/2000/svg">
  <!-- Background -->
  <rect width="64" height="64" rx="12" fill="#FF6B35"/>
  
  <!-- Ramen Bowl -->
  <ellipse cx="32" cy="28" rx="20" ry="4" fill="#D94A2B"/>
  <path d="M 12 28 L 12 38 Q 12 46 20 48 L 44 48 Q 52 46 52 38 L 52 28 Z" fill="#FFF"/>
  <ellipse cx="32" cy="28" rx="20" ry="4" fill="#FFE5D9" opacity="0.8"/>
  
  <!-- Broth -->
  <ellipse cx="32" cy="32" rx="18" ry="3" fill="#FFD93D" opacity="0.6"/>
  
  <!-- Noodles -->
  <path d="M 20 32 Q 22 30 24 32 T 28 32 T 32 32 T 36 32 T 40 32 T 44 32" 
        fill="none" stroke="#FFF8DC" stroke-width="2" opacity="0.9" stroke-linecap="round"/>
  <path d="M 22 35 Q 24 33 26 35 T 30 35 T 34 35 T 38 35 T 42 35" 
        fill="none" stroke="#FFF8DC" stroke-width="2" opacity="0.7" stroke-linecap="round"/>
  
  <!-- Chopsticks -->
  <line x1="36" y1="14" x2="42" y2="40" stroke="#8B4513" stroke-width="2.5" stroke-linecap="round"/>
  <line x1="40" y1="12" x2="46" y2="38" stroke="#A0522D" stroke-width="2.5" stroke-linecap="round"/>
  
  <!-- Steam -->
  <path d="M 20 18 Q 22 15 24 18" fill="none" stroke="#FFE5D9" stroke-width="2" opacity="0.8" stroke-linecap="round"/>
  <path d="M 28 16 Q 30 13 32 16" fill="none" stroke="#FFE5D9" stroke-width="2" opacity="0.8" stroke-linecap="round"/>
  <path d="M 36 18 Q 38 15 40 18" fill="none" stroke="#FFE5D9" stroke-width="2" opacity="0.6" stroke-linecap="round"/>
  
  <!-- Toppings (egg and green onion) -->
  <circle cx="26" cy="30" r="3" fill="#FFE5A0"/>
  <circle cx="26" cy="30" r="1.5" fill="#FFB347"/>
  <rect x="34" y="29" width="6" height="1.5" rx="0.5" fill="#90EE90" opacity="0.8"/>
  <rect x="35" y="31" width="5" height="1.5" rx="0.5" fill="#90EE90" opacity="0.6"/>
</svg>
